<svg id="svg" version="1.1" xmlns="http://www.w3.org/2000/svg" xmlns:xlink="http://www.w3.org/1999/xlink" width="400" height="400" viewBox="0, 0, 400,400"><g id="svgg"><path id="path0" d="M0.000 32.267 C 0.000 50.013,0.088 64.446,0.194 64.339 C 0.301 64.232,0.754 61.997,1.200 59.372 C 5.417 34.554,22.441 13.217,44.400 5.229 C 45.170 4.948,46.160 4.564,46.600 4.374 C 48.546 3.535,54.590 2.040,58.614 1.404 C 61.026 1.022,63.360 0.562,63.800 0.382 C 64.240 0.202,50.065 0.042,32.300 0.027 L 0.000 0.000 0.000 32.267 M336.000 0.400 C 336.330 0.613,337.165 0.791,337.856 0.794 C 340.898 0.809,350.069 3.096,355.782 5.265 C 377.957 13.684,395.887 36.090,399.004 59.277 C 399.801 65.205,399.977 60.204,399.988 31.300 L 400.000 0.000 367.700 0.006 C 346.699 0.010,335.610 0.148,336.000 0.400 M165.701 103.300 C 165.483 103.575,165.080 104.761,164.804 105.935 C 164.529 107.109,163.857 109.269,163.312 110.735 C 162.766 112.201,161.874 115.290,161.329 117.600 C 160.784 119.910,159.902 122.811,159.370 124.048 C 158.838 125.284,157.882 127.894,157.247 129.848 C 156.612 131.801,155.730 134.210,155.287 135.200 C 153.693 138.761,153.721 139.529,155.467 140.217 C 156.310 140.549,157.352 141.020,157.782 141.265 C 158.353 141.589,158.603 141.590,158.711 141.266 C 158.815 140.954,159.012 140.967,159.379 141.310 C 159.666 141.577,159.802 142.051,159.682 142.362 C 159.448 142.973,160.648 142.920,169.400 141.935 C 171.600 141.687,176.073 141.432,179.340 141.368 C 186.425 141.230,185.895 141.612,184.657 137.533 C 183.072 132.311,181.310 125.332,180.217 119.941 C 179.665 117.224,178.869 113.650,178.447 112.000 C 178.024 110.350,177.552 107.978,177.397 106.730 C 176.944 103.079,176.478 102.800,170.833 102.800 C 167.523 102.800,165.979 102.950,165.701 103.300 M205.315 109.456 C 204.537 109.778,201.396 114.394,199.472 118.043 C 198.496 119.892,196.686 123.092,195.449 125.154 C 194.212 127.215,193.200 128.965,193.200 129.041 C 193.200 129.117,192.686 130.309,192.058 131.690 C 187.710 141.251,187.710 141.350,192.061 141.779 C 199.234 142.485,202.148 144.051,202.523 147.400 C 202.646 148.500,202.948 151.175,203.193 153.345 C 203.449 155.619,203.984 158.025,204.454 159.026 C 204.903 159.981,205.174 160.918,205.057 161.108 C 204.939 161.299,205.283 161.929,205.821 162.510 C 206.864 163.634,207.072 164.585,206.370 165.019 C 205.527 165.539,207.705 167.155,212.346 169.453 C 221.549 174.011,227.063 181.653,225.016 187.013 C 223.411 191.218,215.861 194.458,206.400 195.001 C 199.601 195.392,200.182 195.239,200.336 196.600 C 200.411 197.260,200.453 198.970,200.428 200.400 C 200.389 202.661,200.362 211.497,200.372 218.700 C 200.385 228.712,199.932 241.524,199.538 242.287 C 199.153 243.031,199.213 243.288,199.912 243.887 C 200.792 244.640,201.381 250.404,200.687 251.479 C 200.517 251.743,200.587 252.788,200.842 253.802 C 201.097 254.815,201.200 256.543,201.070 257.640 C 200.940 258.738,200.993 260.055,201.188 260.567 C 201.382 261.079,201.397 261.656,201.219 261.849 C 201.042 262.042,200.782 262.850,200.641 263.644 L 200.385 265.087 203.492 266.176 C 205.202 266.774,207.230 267.508,208.000 267.806 C 208.770 268.104,210.930 268.929,212.800 269.639 C 214.670 270.349,216.560 271.242,217.000 271.623 C 217.440 272.003,219.240 273.060,221.000 273.972 C 226.552 276.847,229.043 278.916,232.559 283.575 C 235.831 287.911,236.445 288.263,241.800 288.862 C 258.842 290.768,266.533 288.765,271.736 281.065 C 274.289 277.287,275.255 276.309,277.513 275.215 C 278.551 274.712,280.570 273.738,282.000 273.051 C 285.385 271.422,292.000 265.131,292.000 263.540 C 292.000 261.838,291.389 261.663,286.800 262.050 C 280.848 262.553,268.168 262.513,265.699 261.984 C 261.200 261.019,259.502 256.766,262.431 253.800 L 263.616 252.600 274.908 252.583 C 282.020 252.573,286.972 252.737,288.285 253.027 C 293.043 254.079,294.026 250.095,289.857 246.661 C 288.946 245.911,287.030 244.088,285.600 242.611 C 284.170 241.133,280.840 238.075,278.200 235.814 C 275.560 233.553,271.366 229.529,268.881 226.872 C 265.464 223.219,263.838 221.792,262.217 221.025 C 260.735 220.324,259.793 219.545,259.168 218.505 C 258.671 217.677,256.740 214.696,254.877 211.880 C 250.944 205.936,246.198 194.608,245.214 188.817 C 245.007 187.598,244.547 185.070,244.193 183.200 C 243.839 181.330,243.301 178.090,242.998 176.000 C 242.695 173.910,242.273 171.208,242.060 169.995 C 240.588 161.613,232.463 150.225,226.065 147.577 C 219.433 144.833,218.876 144.213,218.365 139.000 C 217.879 134.035,217.353 130.571,216.999 129.998 C 216.835 129.733,216.542 127.870,216.347 125.858 C 215.240 114.390,214.493 110.595,213.275 110.243 C 212.904 110.135,211.520 109.936,210.200 109.799 C 208.880 109.662,207.350 109.484,206.800 109.402 C 206.250 109.321,205.582 109.345,205.315 109.456 M0.000 367.933 L 0.000 400.000 30.867 400.000 C 47.843 400.000,61.636 399.902,61.516 399.783 C 61.397 399.664,59.243 399.140,56.729 398.618 C 27.430 392.543,6.322 370.645,1.216 341.030 C 0.764 338.407,0.305 336.172,0.197 336.064 C 0.089 335.955,0.000 350.297,0.000 367.933 M399.461 338.300 C 399.354 338.685,399.149 339.900,399.004 341.000 C 395.266 369.418,369.545 395.278,341.289 399.026 C 335.441 399.802,341.161 400.000,369.376 400.000 L 400.000 400.000 400.000 368.800 C 400.000 351.640,399.922 337.600,399.827 337.600 C 399.732 337.600,399.567 337.915,399.461 338.300 " stroke="none" fill="#d8cfc7" fill-rule="evenodd"></path><path id="path1" d="M63.000 6.681 C 60.504 6.918,51.510 8.778,51.030 9.157 C 50.794 9.343,49.880 9.712,49.000 9.977 C 48.120 10.241,46.680 10.781,45.800 11.176 C 44.920 11.571,43.210 12.314,42.000 12.828 C 40.790 13.342,39.090 14.266,38.221 14.882 C 37.353 15.497,36.478 16.000,36.276 16.000 C 35.948 16.000,33.607 17.657,29.600 20.726 C 25.239 24.067,17.074 33.375,15.979 36.254 C 15.795 36.740,15.027 38.007,14.274 39.069 C 13.521 40.131,12.596 41.947,12.218 43.105 C 11.841 44.263,11.305 45.438,11.027 45.715 C 10.750 45.993,10.390 46.927,10.228 47.791 C 10.066 48.656,9.605 50.005,9.205 50.791 C 8.804 51.576,8.348 53.115,8.192 54.209 C 8.036 55.304,7.614 57.190,7.255 58.400 C 6.270 61.720,6.037 335.945,7.016 340.242 C 7.362 341.759,7.889 344.350,8.187 346.000 C 8.486 347.650,9.122 349.990,9.601 351.200 C 10.417 353.262,10.622 353.709,11.571 355.500 C 11.775 355.885,12.500 357.370,13.184 358.800 C 17.031 366.854,25.399 377.028,31.407 380.958 C 32.511 381.680,33.747 382.604,34.154 383.011 C 34.992 383.849,36.122 384.501,40.400 386.619 C 42.050 387.436,43.719 388.264,44.109 388.461 C 44.499 388.657,45.849 389.184,47.109 389.632 C 48.369 390.080,49.850 390.682,50.400 390.970 C 50.950 391.257,52.210 391.615,53.200 391.766 C 54.190 391.916,55.810 392.345,56.800 392.719 C 59.788 393.849,338.576 393.965,342.400 392.838 C 343.830 392.417,345.810 391.948,346.800 391.798 C 347.790 391.647,349.590 391.109,350.800 390.602 C 352.010 390.095,354.440 389.078,356.200 388.341 C 357.960 387.603,359.580 386.799,359.800 386.552 C 360.020 386.305,361.460 385.435,363.000 384.619 C 370.835 380.467,377.457 374.161,383.184 365.400 C 384.047 364.080,385.127 362.517,385.585 361.927 C 386.042 361.336,386.670 360.134,386.981 359.255 C 387.291 358.376,387.799 357.239,388.109 356.728 C 388.420 356.218,388.911 355.035,389.201 354.100 C 389.491 353.165,389.866 352.400,390.036 352.400 C 390.205 352.400,390.552 351.393,390.808 350.162 C 391.063 348.931,391.556 347.266,391.903 346.462 C 392.249 345.658,392.664 343.560,392.823 341.800 C 392.983 340.040,393.318 336.800,393.568 334.600 C 393.901 331.671,393.993 295.093,393.911 198.000 C 393.790 53.561,393.918 62.052,391.719 53.400 C 390.789 49.740,386.800 39.799,386.022 39.200 C 385.879 39.090,385.233 38.100,384.586 37.000 C 381.831 32.313,381.128 31.393,376.613 26.568 C 374.258 24.051,371.131 21.152,369.665 20.127 C 368.199 19.101,366.550 17.869,366.000 17.387 C 365.170 16.661,361.338 14.389,357.800 12.525 C 355.854 11.500,353.124 10.400,352.528 10.400 C 352.170 10.400,350.960 9.970,349.839 9.444 C 348.717 8.918,346.810 8.363,345.600 8.210 C 344.390 8.058,342.274 7.593,340.898 7.179 C 338.588 6.483,70.138 6.002,63.000 6.681 M177.623 102.237 C 178.665 103.280,178.916 103.925,179.219 106.339 C 179.417 107.915,180.032 111.138,180.586 113.502 C 181.141 115.866,181.887 119.060,182.246 120.600 C 184.306 129.455,186.560 136.800,187.216 136.800 C 187.374 136.800,188.456 134.685,189.620 132.100 C 190.784 129.515,192.155 126.729,192.668 125.908 C 193.181 125.087,193.600 124.308,193.600 124.176 C 193.600 124.044,194.206 123.005,194.947 121.868 C 195.688 120.731,196.983 118.540,197.824 117.000 C 201.998 109.358,204.292 106.943,206.953 107.393 C 207.859 107.546,209.410 107.754,210.400 107.856 C 216.262 108.459,216.349 108.655,217.991 125.107 C 218.195 127.146,218.483 129.011,218.632 129.251 C 218.929 129.732,219.461 133.543,219.959 138.761 C 220.308 142.415,221.194 143.681,224.200 144.824 C 231.020 147.416,241.328 158.718,241.577 163.877 C 241.590 164.140,241.941 164.950,242.357 165.677 C 243.147 167.056,243.637 169.343,244.654 176.400 C 244.987 178.710,245.421 181.590,245.617 182.800 C 245.813 184.010,246.145 186.170,246.354 187.600 C 246.563 189.030,247.278 191.730,247.942 193.600 C 248.607 195.470,249.533 198.080,250.002 199.400 C 251.195 202.764,254.618 209.514,256.025 211.279 C 256.673 212.093,257.768 213.803,258.458 215.079 C 260.097 218.112,260.643 218.706,262.811 219.805 C 263.806 220.310,266.236 222.378,268.211 224.400 C 273.843 230.170,277.959 234.103,279.127 234.829 C 279.717 235.196,282.002 237.275,284.205 239.448 C 286.408 241.622,289.075 244.120,290.131 245.000 C 291.196 245.887,292.677 247.710,293.455 249.090 L 294.858 251.580 294.448 257.831 C 293.987 264.865,293.944 264.979,290.699 267.619 C 289.495 268.599,288.136 269.965,287.680 270.657 C 286.743 272.074,282.478 274.642,278.400 276.243 C 275.964 277.200,275.689 277.470,273.218 281.336 C 267.866 289.706,257.867 292.466,241.051 290.212 C 235.505 289.469,235.541 289.485,233.200 286.744 C 229.947 282.936,226.321 279.646,225.237 279.520 C 224.614 279.448,224.040 279.035,223.800 278.486 C 223.531 277.872,222.761 277.382,221.452 276.993 C 220.358 276.668,218.603 275.656,217.452 274.687 C 214.527 272.225,203.685 268.000,200.293 268.000 C 199.780 268.000,199.189 267.847,198.980 267.659 C 198.771 267.472,196.260 266.455,193.400 265.400 C 186.352 262.799,178.758 259.047,175.800 256.705 C 173.905 255.204,171.528 253.571,170.200 252.857 C 168.501 251.943,167.746 251.404,163.610 248.143 C 158.656 244.239,151.574 236.838,148.874 232.742 C 148.063 231.513,146.619 229.390,145.665 228.025 C 144.711 226.659,143.416 224.295,142.788 222.771 C 142.160 221.247,141.394 219.506,141.086 218.900 C 138.102 213.035,137.804 212.209,136.998 207.549 C 136.679 205.707,136.164 203.120,135.852 201.800 C 134.117 194.444,134.000 193.477,134.001 186.474 C 134.003 179.749,134.950 169.633,135.974 165.400 C 136.187 164.520,136.469 162.960,136.600 161.932 C 136.745 160.801,137.265 159.512,137.920 158.662 C 142.381 152.868,143.861 150.795,144.534 149.400 C 144.959 148.520,145.969 146.990,146.779 146.000 C 148.703 143.650,150.467 140.420,151.556 137.254 C 152.037 135.853,152.799 133.986,153.249 133.104 C 154.715 130.231,158.035 121.858,158.684 119.400 C 159.032 118.080,159.932 115.200,160.683 113.000 C 161.435 110.800,162.372 107.739,162.767 106.198 C 163.874 101.873,163.965 101.682,165.118 101.243 C 165.713 101.017,168.492 100.870,171.293 100.916 L 176.387 101.000 177.623 102.237 M185.200 166.405 C 176.919 167.661,174.448 168.921,173.088 172.585 C 171.885 175.824,172.455 176.120,180.412 176.386 C 187.873 176.635,187.399 176.323,187.714 181.191 C 188.119 187.435,190.192 189.322,199.400 191.824 C 210.185 194.755,223.045 191.417,224.175 185.395 C 225.016 180.910,218.558 173.663,211.400 171.060 C 209.860 170.500,207.160 169.472,205.400 168.776 C 197.140 165.510,193.737 165.111,185.200 166.405 " stroke="none" fill="#1d1c1c" fill-rule="evenodd"></path><path id="path2" d="M64.286 0.247 C 64.149 0.385,61.913 0.839,59.318 1.256 C 54.593 2.016,48.452 3.570,46.200 4.575 C 45.540 4.870,44.550 5.245,44.000 5.409 C 40.329 6.501,31.646 11.589,26.800 15.488 C 12.642 26.879,4.671 40.501,1.108 59.400 L 0.203 64.200 0.201 200.200 L 0.200 336.200 1.119 341.000 C 6.921 371.297,26.770 391.909,56.688 398.707 L 61.400 399.777 199.958 399.890 C 278.930 399.954,338.706 399.851,338.958 399.652 C 339.201 399.459,340.300 399.173,341.400 399.017 C 370.156 394.934,392.931 372.043,399.124 341.000 C 400.137 335.920,400.095 63.772,399.080 59.000 C 392.492 28.023,371.173 6.293,342.775 1.609 C 341.139 1.339,338.900 0.919,337.800 0.676 C 335.633 0.198,64.760 -0.227,64.286 0.247 M338.836 5.502 C 341.804 5.844,344.542 6.468,349.800 8.002 C 367.449 13.151,382.447 27.039,390.618 45.800 C 392.074 49.145,393.774 55.768,394.827 62.200 C 395.665 67.320,395.114 338.080,394.257 342.000 C 393.079 347.396,391.220 353.098,389.339 357.090 C 388.382 359.119,387.600 360.879,387.600 361.001 C 387.600 361.646,382.145 369.482,379.526 372.600 C 371.931 381.642,358.048 390.671,348.800 392.583 C 348.030 392.743,346.590 393.140,345.600 393.466 C 340.369 395.190,340.851 395.184,200.600 395.184 C 62.086 395.184,58.504 395.144,54.600 393.575 C 53.940 393.309,52.320 392.772,51.000 392.380 C 37.076 388.246,23.593 378.328,16.225 366.800 C 15.593 365.810,14.769 364.547,14.395 363.994 C 12.961 361.872,9.200 354.059,9.200 353.201 C 9.200 352.849,9.030 352.389,8.823 352.180 C 8.426 351.779,6.546 345.058,5.976 342.000 C 4.911 336.281,4.800 322.867,4.797 199.438 C 4.794 69.008,4.858 62.923,6.282 57.000 C 6.599 55.680,7.090 53.605,7.374 52.388 C 7.657 51.171,8.184 49.605,8.544 48.908 C 8.905 48.210,9.200 47.298,9.200 46.879 C 9.200 46.461,9.627 45.315,10.150 44.333 C 10.672 43.350,11.230 42.135,11.390 41.633 C 11.686 40.700,13.521 37.588,16.717 32.600 C 18.985 29.061,29.333 18.723,32.532 16.800 C 33.813 16.030,35.523 14.969,36.331 14.442 C 43.780 9.585,54.189 6.196,64.130 5.391 C 71.849 4.767,333.368 4.872,338.836 5.502 M265.557 252.676 C 259.363 253.119,259.499 260.697,265.725 261.982 C 270.564 262.981,289.434 262.386,290.914 261.188 C 292.566 259.850,292.318 252.746,290.640 253.325 C 290.398 253.409,289.660 253.321,289.000 253.131 C 287.723 252.763,269.331 252.406,265.557 252.676 " stroke="none" fill="#ea1010" fill-rule="evenodd"></path><path id="path3" d="M64.000 5.588 C 63.450 5.757,64.440 5.805,66.200 5.693 C 67.960 5.582,69.475 5.425,69.567 5.345 C 69.884 5.068,64.995 5.281,64.000 5.588 M331.891 5.489 C 332.601 5.577,333.861 5.579,334.691 5.492 C 335.521 5.405,334.940 5.333,333.400 5.331 C 331.860 5.329,331.181 5.400,331.891 5.489 M341.400 6.210 C 342.060 6.515,343.140 6.757,343.800 6.748 C 345.219 6.728,344.212 6.337,341.600 5.894 L 340.200 5.656 341.400 6.210 M56.200 6.400 C 55.513 6.695,55.570 6.747,56.600 6.766 C 57.260 6.778,58.070 6.613,58.400 6.400 C 59.182 5.894,57.376 5.894,56.200 6.400 M43.400 10.610 C 42.520 11.152,41.929 11.597,42.088 11.598 C 42.471 11.601,45.600 9.963,45.600 9.760 C 45.600 9.410,44.926 9.671,43.400 10.610 M355.941 10.605 C 356.898 11.152,357.888 11.592,358.141 11.582 C 358.670 11.561,355.203 9.643,354.600 9.623 C 354.380 9.616,354.983 10.057,355.941 10.605 M362.918 14.141 C 363.753 14.724,364.517 15.200,364.617 15.200 C 364.717 15.200,365.736 15.874,366.883 16.698 C 368.030 17.522,368.837 17.983,368.676 17.723 C 368.320 17.148,363.228 13.730,362.165 13.354 C 361.744 13.205,362.083 13.559,362.918 14.141 M28.403 20.022 C 26.641 21.574,25.200 22.934,25.200 23.044 C 25.200 23.154,26.685 21.947,28.500 20.361 C 30.315 18.775,31.875 17.415,31.967 17.339 C 32.058 17.262,32.014 17.200,31.869 17.200 C 31.724 17.200,30.164 18.470,28.403 20.022 M369.600 18.506 C 369.600 18.594,370.365 19.274,371.300 20.017 C 372.235 20.760,372.746 21.052,372.436 20.665 C 371.851 19.937,369.600 18.223,369.600 18.506 M375.600 23.800 C 377.017 25.230,378.267 26.400,378.377 26.400 C 378.487 26.400,377.417 25.230,376.000 23.800 C 374.583 22.370,373.333 21.200,373.223 21.200 C 373.113 21.200,374.183 22.370,375.600 23.800 M21.243 27.027 C 19.459 28.912,17.797 30.847,17.551 31.327 C 17.304 31.807,17.795 31.390,18.642 30.400 C 19.489 29.410,21.250 27.475,22.555 26.100 C 23.859 24.725,24.828 23.600,24.707 23.600 C 24.586 23.600,23.027 25.142,21.243 27.027 M379.892 28.479 C 380.756 29.512,382.429 31.807,383.610 33.579 C 384.791 35.350,385.823 36.800,385.902 36.800 C 386.405 36.800,381.957 30.423,380.075 28.444 L 378.321 26.600 379.892 28.479 M16.084 33.500 C 15.660 34.105,15.102 35.005,14.843 35.500 C 14.000 37.110,14.650 36.450,15.924 34.400 C 17.254 32.259,17.357 31.682,16.084 33.500 M10.014 44.374 C 9.507 45.321,9.484 45.719,9.952 45.430 C 10.305 45.212,10.855 43.600,10.577 43.600 C 10.495 43.600,10.242 43.948,10.014 44.374 M390.406 46.276 C 390.403 46.758,390.580 47.264,390.800 47.400 C 391.309 47.715,391.309 46.788,390.800 46.000 C 390.485 45.512,390.411 45.564,390.406 46.276 M392.428 52.476 C 392.413 53.068,392.580 53.664,392.800 53.800 C 393.278 54.095,393.278 53.311,392.800 52.200 C 392.493 51.486,392.453 51.515,392.428 52.476 M393.206 55.833 C 393.209 56.475,393.384 57.270,393.595 57.600 C 393.855 58.009,393.899 57.690,393.732 56.600 C 393.429 54.623,393.198 54.286,393.206 55.833 M6.120 57.200 C 5.874 58.410,5.734 59.463,5.810 59.540 C 6.056 59.791,6.851 56.360,6.707 55.670 C 6.630 55.301,6.366 55.990,6.120 57.200 M394.490 62.800 C 394.484 64.230,394.624 65.850,394.800 66.400 C 395.245 67.788,395.260 64.471,394.820 62.000 C 394.507 60.238,394.500 60.254,394.490 62.800 M5.314 66.200 C 5.317 67.300,5.395 67.703,5.487 67.095 C 5.579 66.486,5.577 65.586,5.482 65.095 C 5.387 64.603,5.311 65.100,5.314 66.200 M164.736 102.300 C 164.413 102.685,163.911 103.990,163.620 105.200 C 163.328 106.410,162.650 108.660,162.113 110.200 C 161.575 111.740,160.631 114.890,160.014 117.200 C 159.398 119.510,158.152 123.242,157.247 125.494 C 156.341 127.746,155.600 129.695,155.600 129.826 C 155.600 129.957,154.999 131.265,154.263 132.732 C 153.528 134.200,152.599 136.390,152.199 137.600 C 151.310 140.285,149.491 143.840,147.457 146.864 C 145.667 149.526,145.608 150.932,147.278 151.124 C 147.972 151.205,148.284 151.436,148.155 151.773 C 148.044 152.061,148.234 152.404,148.577 152.536 C 148.920 152.667,149.200 153.132,149.200 153.569 C 149.200 154.006,149.650 154.814,150.200 155.364 C 151.271 156.435,151.503 157.937,150.717 158.723 C 150.340 159.100,150.377 159.348,150.886 159.858 C 151.409 160.381,151.445 160.659,151.069 161.265 C 150.689 161.878,150.760 162.303,151.443 163.510 C 152.313 165.048,152.246 165.957,151.089 168.326 C 150.807 168.903,150.781 169.355,151.018 169.526 C 152.237 170.401,152.727 172.641,151.999 174.002 C 151.731 174.503,151.731 174.834,151.999 174.999 C 152.760 175.470,152.439 177.476,151.504 178.098 C 150.682 178.643,150.654 178.780,151.164 179.733 C 151.616 180.578,151.625 180.888,151.211 181.386 C 150.799 181.884,150.800 182.118,151.221 182.625 C 151.600 183.082,151.716 184.691,151.649 188.598 C 151.585 192.413,151.708 194.197,152.079 194.825 C 152.492 195.523,152.497 195.742,152.100 195.886 C 151.458 196.118,151.456 197.780,152.096 198.805 C 152.493 199.441,152.489 199.766,152.075 200.429 C 151.694 201.039,151.663 201.594,151.957 202.529 C 152.401 203.941,152.322 207.808,151.826 208.909 C 151.651 209.299,151.682 210.307,151.896 211.149 C 152.459 213.368,152.519 219.031,151.989 220.020 C 151.622 220.706,151.722 221.251,152.523 222.932 C 153.586 225.162,154.326 231.351,153.585 231.809 C 153.342 231.959,153.337 232.308,153.571 232.746 C 153.783 233.141,153.796 233.683,153.601 233.998 C 153.177 234.684,153.948 236.249,155.362 237.570 C 155.933 238.103,156.400 238.779,156.400 239.072 C 156.400 240.309,165.638 248.714,170.075 251.513 C 171.371 252.331,174.037 254.203,175.999 255.674 C 179.157 258.040,184.474 260.896,190.600 263.518 C 193.861 264.913,200.123 267.245,201.200 267.465 C 201.750 267.577,203.010 267.901,204.000 268.185 C 204.990 268.469,206.610 268.924,207.600 269.196 C 210.226 269.917,215.273 272.033,216.200 272.802 C 216.640 273.167,218.490 274.227,220.310 275.158 C 226.558 278.354,228.747 280.092,231.699 284.200 C 235.648 289.696,237.064 290.130,251.002 290.116 C 261.912 290.106,262.303 290.019,267.753 286.427 C 270.003 284.944,270.939 283.967,272.881 281.079 C 275.209 277.617,277.971 275.200,279.600 275.200 C 279.954 275.200,281.095 274.660,282.136 274.000 C 283.176 273.340,284.203 272.800,284.417 272.800 C 284.630 272.800,286.649 270.999,288.903 268.798 L 293.000 264.795 293.277 259.698 C 293.430 256.894,293.672 253.952,293.814 253.160 C 294.229 250.859,292.786 248.053,289.859 245.467 C 288.507 244.271,285.780 241.693,283.800 239.736 C 281.820 237.780,279.480 235.652,278.600 235.007 C 277.720 234.363,274.111 230.909,270.580 227.331 C 266.276 222.970,263.639 220.611,262.580 220.175 C 260.768 219.428,259.529 218.112,258.404 215.741 C 257.972 214.829,257.198 213.569,256.685 212.941 C 254.093 209.769,251.631 205.144,249.797 200.000 C 249.287 198.570,248.308 195.878,247.621 194.017 C 246.935 192.156,246.211 189.546,246.013 188.217 C 245.815 186.888,245.358 184.180,244.998 182.200 C 244.638 180.220,244.184 177.250,243.989 175.600 C 242.461 162.672,235.501 150.967,226.800 146.691 C 224.002 145.316,221.011 143.642,220.000 142.883 C 219.890 142.801,219.676 141.263,219.524 139.467 C 219.124 134.732,218.546 130.560,218.215 130.025 C 218.057 129.769,217.777 128.084,217.592 126.280 C 216.505 115.669,215.627 110.656,214.691 109.719 C 213.904 108.932,205.763 107.797,204.625 108.316 C 203.653 108.759,199.944 114.161,197.839 118.200 C 197.036 119.740,195.439 122.536,194.290 124.414 C 192.181 127.859,190.570 131.151,188.571 136.100 C 186.805 140.471,186.853 140.556,183.024 126.400 C 182.518 124.530,181.794 121.560,181.415 119.800 C 181.037 118.040,180.484 115.520,180.187 114.200 C 179.337 110.421,178.867 107.958,178.589 105.835 C 178.106 102.145,177.090 101.600,170.693 101.600 C 166.070 101.600,165.242 101.697,164.736 102.300 M176.342 103.630 C 176.810 104.132,177.227 105.357,177.397 106.730 C 177.552 107.978,178.024 110.350,178.447 112.000 C 178.869 113.650,179.665 117.224,180.217 119.941 C 181.310 125.332,183.072 132.311,184.657 137.533 C 185.895 141.612,186.425 141.230,179.340 141.368 C 176.073 141.432,171.600 141.687,169.400 141.935 C 160.648 142.920,159.448 142.973,159.682 142.362 C 159.802 142.051,159.666 141.577,159.379 141.310 C 159.012 140.967,158.815 140.954,158.711 141.266 C 158.603 141.590,158.353 141.589,157.782 141.265 C 157.352 141.020,156.310 140.549,155.467 140.217 C 153.721 139.529,153.693 138.761,155.287 135.200 C 155.730 134.210,156.612 131.801,157.247 129.848 C 157.882 127.894,158.838 125.284,159.370 124.048 C 159.902 122.811,160.784 119.910,161.329 117.600 C 161.874 115.290,162.766 112.201,163.312 110.735 C 163.857 109.269,164.529 107.109,164.804 105.935 C 165.548 102.763,165.478 102.800,170.833 102.800 C 175.111 102.800,175.644 102.880,176.342 103.630 M210.200 109.799 C 211.520 109.936,212.904 110.135,213.275 110.243 C 214.493 110.595,215.240 114.390,216.347 125.858 C 216.542 127.870,216.835 129.733,216.999 129.998 C 217.353 130.571,217.879 134.035,218.365 139.000 C 218.876 144.213,219.433 144.833,226.065 147.577 C 232.463 150.225,240.588 161.613,242.060 169.995 C 242.273 171.208,242.695 173.910,242.998 176.000 C 243.301 178.090,243.839 181.330,244.193 183.200 C 244.547 185.070,245.007 187.598,245.214 188.817 C 246.198 194.608,250.944 205.936,254.877 211.880 C 256.740 214.696,258.671 217.677,259.168 218.505 C 259.793 219.545,260.735 220.324,262.217 221.025 C 263.838 221.792,265.464 223.219,268.881 226.872 C 271.366 229.529,275.560 233.555,278.200 235.818 C 280.840 238.081,284.350 241.314,286.000 243.003 C 287.650 244.692,289.498 246.431,290.106 246.868 C 292.187 248.364,293.128 251.698,291.783 252.814 C 291.355 253.169,291.294 253.454,291.583 253.743 C 292.198 254.358,292.088 259.221,291.432 260.480 C 290.947 261.408,290.948 261.625,291.434 262.029 C 293.304 263.581,287.437 270.435,282.000 273.051 C 280.570 273.738,278.551 274.712,277.513 275.215 C 275.255 276.309,274.289 277.287,271.736 281.065 C 266.533 288.765,258.842 290.768,241.800 288.862 C 236.445 288.263,235.831 287.911,232.559 283.575 C 229.043 278.916,226.552 276.847,221.000 273.972 C 219.240 273.060,217.440 272.003,217.000 271.623 C 216.560 271.242,214.670 270.349,212.800 269.639 C 210.930 268.929,208.770 268.104,208.000 267.806 C 207.230 267.508,205.202 266.774,203.492 266.176 L 200.385 265.087 200.641 263.644 C 200.782 262.850,201.042 262.042,201.219 261.849 C 201.397 261.656,201.382 261.079,201.188 260.567 C 200.993 260.055,200.940 258.738,201.070 257.640 C 201.200 256.543,201.097 254.815,200.842 253.802 C 200.587 252.788,200.517 251.743,200.687 251.479 C 201.381 250.404,200.792 244.640,199.912 243.887 C 199.213 243.288,199.153 243.031,199.538 242.287 C 199.932 241.524,200.385 228.712,200.372 218.700 C 200.362 211.497,200.389 202.661,200.428 200.400 C 200.453 198.970,200.411 197.260,200.336 196.600 C 200.182 195.239,199.601 195.392,206.400 195.001 C 215.861 194.458,223.411 191.218,225.016 187.013 C 227.063 181.653,221.549 174.011,212.346 169.453 C 207.705 167.155,205.527 165.539,206.370 165.019 C 207.072 164.585,206.864 163.634,205.821 162.510 C 205.283 161.929,204.939 161.299,205.057 161.108 C 205.174 160.918,204.903 159.981,204.454 159.026 C 203.984 158.025,203.449 155.619,203.193 153.345 C 202.948 151.175,202.646 148.500,202.523 147.400 C 202.148 144.051,199.234 142.485,192.061 141.779 C 187.710 141.350,187.710 141.251,192.058 131.690 C 192.686 130.309,193.200 129.117,193.200 129.041 C 193.200 128.965,194.212 127.215,195.449 125.154 C 196.686 123.092,198.496 119.892,199.472 118.043 C 202.891 111.560,204.952 109.129,206.800 109.402 C 207.350 109.484,208.880 109.662,210.200 109.799 M198.800 165.978 C 200.450 166.391,203.779 167.555,206.197 168.565 C 208.616 169.574,210.757 170.400,210.955 170.400 C 214.833 170.400,222.956 178.166,224.421 183.273 C 226.570 190.767,211.201 195.877,198.200 191.992 C 189.491 189.388,187.200 187.118,187.200 181.093 C 187.200 177.221,187.177 177.205,181.620 177.176 C 172.499 177.129,171.006 176.388,172.283 172.542 C 173.331 169.385,175.726 167.503,179.776 166.655 C 187.177 165.104,194.298 164.851,198.800 165.978 M5.320 334.400 C 5.320 335.610,5.395 336.105,5.487 335.500 C 5.578 334.895,5.578 333.905,5.487 333.300 C 5.395 332.695,5.320 333.190,5.320 334.400 M394.703 334.200 C 394.541 335.080,394.429 336.700,394.453 337.800 L 394.498 339.800 394.857 337.400 C 395.306 334.399,395.174 331.643,394.703 334.200 M6.056 342.400 C 6.056 342.950,6.211 343.760,6.400 344.200 C 6.713 344.929,6.744 344.912,6.744 344.000 C 6.744 343.450,6.589 342.640,6.400 342.200 C 6.087 341.471,6.056 341.488,6.056 342.400 M393.456 342.884 C 393.321 343.388,393.230 344.340,393.253 345.000 C 393.281 345.828,393.397 345.584,393.626 344.213 C 393.976 342.123,393.874 341.326,393.456 342.884 M392.692 346.642 C 392.531 346.802,392.411 347.398,392.425 347.967 L 392.451 349.000 392.837 348.034 C 393.253 346.994,393.167 346.167,392.692 346.642 M390.788 352.822 C 390.546 353.274,390.418 353.855,390.504 354.111 C 390.589 354.368,390.862 353.998,391.109 353.289 C 391.617 351.832,391.449 351.588,390.788 352.822 M388.600 358.000 C 388.259 358.660,388.069 359.200,388.179 359.200 C 388.289 359.200,388.659 358.660,389.000 358.000 C 389.341 357.340,389.531 356.800,389.421 356.800 C 389.311 356.800,388.941 357.340,388.600 358.000 M386.102 362.900 C 385.536 363.615,384.740 365.200,384.946 365.200 C 385.042 365.200,385.493 364.570,385.947 363.800 C 386.773 362.401,386.849 361.957,386.102 362.900 M382.938 367.694 C 380.978 370.363,380.598 370.972,381.076 370.676 C 381.541 370.389,384.925 365.600,384.663 365.600 C 384.560 365.600,383.783 366.542,382.938 367.694 M18.448 370.000 C 19.155 370.880,19.805 371.600,19.893 371.600 C 20.201 371.600,17.796 368.417,17.481 368.409 C 17.306 368.404,17.741 369.120,18.448 370.000 M375.591 376.104 C 373.057 378.577,370.357 381.100,369.591 381.712 C 368.354 382.700,368.394 382.690,369.948 381.620 C 373.107 379.446,381.271 371.573,380.334 371.604 C 380.260 371.607,378.126 373.632,375.591 376.104 M23.800 376.000 C 25.771 377.980,27.473 379.600,27.583 379.600 C 27.693 379.600,26.171 377.980,24.200 376.000 C 22.229 374.020,20.527 372.400,20.417 372.400 C 20.307 372.400,21.829 374.020,23.800 376.000 M32.000 382.946 C 32.000 383.056,32.540 383.530,33.200 384.000 C 33.860 384.470,34.400 384.764,34.400 384.654 C 34.400 384.544,33.860 384.070,33.200 383.600 C 32.540 383.130,32.000 382.836,32.000 382.946 M36.000 385.800 C 36.745 386.350,37.542 386.800,37.771 386.800 C 37.999 386.800,37.523 386.350,36.714 385.800 C 35.905 385.250,35.108 384.800,34.944 384.800 C 34.779 384.800,35.255 385.250,36.000 385.800 M358.500 388.376 C 355.739 389.795,354.138 390.822,355.815 390.098 C 358.522 388.928,360.575 387.923,361.320 387.401 C 362.767 386.387,361.546 386.809,358.500 388.376 M352.576 391.022 C 351.812 391.634,351.813 391.638,352.600 391.276 C 353.040 391.074,353.670 390.808,354.000 390.686 C 354.518 390.493,354.515 390.459,353.976 390.432 C 353.634 390.414,353.004 390.680,352.576 391.022 M48.000 391.334 C 48.000 391.437,48.581 391.724,49.291 391.972 C 50.001 392.219,50.406 392.257,50.191 392.056 C 49.735 391.629,48.000 391.058,48.000 391.334 M346.645 392.728 C 346.533 392.908,346.973 392.977,347.621 392.882 C 348.270 392.787,348.800 392.640,348.800 392.555 C 348.800 392.250,346.843 392.407,346.645 392.728 M54.600 393.565 C 55.040 393.738,56.030 393.984,56.800 394.112 L 58.200 394.344 57.000 393.790 C 56.340 393.485,55.350 393.239,54.800 393.243 C 53.901 393.250,53.881 393.283,54.600 393.565 M342.800 393.817 L 341.800 394.407 343.000 394.138 C 345.774 393.518,346.330 393.271,345.000 393.249 C 344.340 393.237,343.350 393.493,342.800 393.817 M62.100 394.687 C 62.705 394.778,63.695 394.778,64.300 394.687 C 64.905 394.595,64.410 394.520,63.200 394.520 C 61.990 394.520,61.495 394.595,62.100 394.687 M334.631 394.750 C 334.512 394.943,335.266 395.018,336.307 394.917 C 339.061 394.650,339.294 394.468,336.924 394.432 C 335.782 394.414,334.750 394.558,334.631 394.750 " stroke="none" fill="#76583d" fill-rule="evenodd"></path><path id="path4" d="M69.900 5.229 C 69.515 5.455,67.175 5.655,64.700 5.675 C 62.225 5.694,59.750 5.891,59.200 6.113 C 58.236 6.501,55.847 6.997,52.697 7.463 C 51.871 7.585,51.095 7.845,50.974 8.042 C 50.852 8.239,50.358 8.406,49.876 8.413 C 49.394 8.420,48.651 8.690,48.224 9.013 C 47.796 9.336,47.180 9.600,46.854 9.600 C 45.874 9.600,38.854 13.140,34.863 15.647 C 26.135 21.129,15.913 32.445,12.142 40.800 C 11.795 41.570,11.080 43.072,10.555 44.137 C 10.030 45.202,9.600 46.321,9.600 46.623 C 9.600 46.926,9.305 47.854,8.945 48.686 C 7.841 51.236,7.662 51.756,7.461 53.000 C 7.355 53.660,6.967 55.370,6.599 56.800 C 5.108 62.596,5.063 66.779,5.050 200.000 C 5.035 341.559,4.986 338.268,7.235 345.828 C 7.436 346.504,7.600 347.528,7.600 348.105 C 7.600 348.681,7.759 349.251,7.952 349.370 C 8.146 349.490,8.398 349.996,8.513 350.494 C 8.873 352.057,10.655 356.534,11.546 358.112 C 12.016 358.944,12.400 359.889,12.400 360.212 C 12.400 360.535,12.559 360.800,12.753 360.800 C 12.948 360.800,13.206 361.115,13.328 361.500 C 13.643 362.500,15.276 365.250,16.100 366.169 C 16.485 366.599,16.800 367.084,16.800 367.247 C 16.800 367.410,17.034 367.781,17.320 368.071 C 17.606 368.362,18.579 369.590,19.482 370.800 C 22.441 374.766,33.560 384.800,34.996 384.800 C 35.150 384.800,35.769 385.150,36.370 385.579 C 38.116 386.822,45.266 390.400,46.005 390.400 C 46.621 390.400,48.362 391.092,50.095 392.026 C 50.477 392.232,51.244 392.400,51.800 392.400 C 52.356 392.400,53.123 392.559,53.505 392.753 C 54.948 393.486,57.933 394.112,61.800 394.491 C 67.388 395.040,334.017 395.343,334.559 394.801 C 334.779 394.581,336.499 394.394,338.380 394.386 C 340.588 394.377,342.154 394.169,342.800 393.800 C 343.350 393.486,344.374 393.222,345.076 393.214 C 345.778 393.206,346.464 393.020,346.600 392.800 C 346.736 392.580,347.469 392.400,348.229 392.400 C 348.989 392.400,349.923 392.246,350.305 392.057 C 350.687 391.869,351.568 391.419,352.262 391.057 C 352.956 390.696,353.758 390.400,354.044 390.400 C 354.564 390.400,361.348 387.078,364.000 385.525 C 371.308 381.245,380.879 371.662,385.463 364.035 C 386.898 361.647,390.400 354.445,390.400 353.881 C 390.400 353.590,390.664 353.004,390.987 352.576 C 391.310 352.149,391.580 351.406,391.587 350.924 C 391.594 350.442,391.780 349.936,392.000 349.800 C 392.220 349.664,392.400 348.944,392.400 348.200 C 392.400 347.456,392.580 346.736,392.800 346.600 C 393.020 346.464,393.200 345.737,393.200 344.984 C 393.200 344.232,393.456 342.938,393.769 342.108 C 394.890 339.136,394.955 331.284,394.946 200.000 C 394.937 70.263,394.845 59.782,393.691 57.726 C 393.421 57.246,393.200 56.221,393.200 55.450 C 393.200 54.678,393.020 53.936,392.800 53.800 C 392.580 53.664,392.400 53.044,392.400 52.422 C 392.400 51.800,392.131 50.776,391.802 50.146 C 391.474 49.516,391.204 48.696,391.202 48.324 C 391.201 47.952,391.020 47.536,390.800 47.400 C 390.580 47.264,390.400 46.801,390.400 46.371 C 390.400 45.941,390.233 45.277,390.029 44.895 C 389.825 44.513,389.553 43.930,389.425 43.600 C 389.296 43.270,388.846 42.460,388.425 41.800 C 388.003 41.140,387.645 40.285,387.629 39.900 C 387.613 39.515,387.420 39.200,387.200 39.200 C 386.980 39.200,386.800 39.009,386.800 38.776 C 386.800 37.934,381.333 30.179,378.377 26.827 C 374.638 22.589,365.828 15.200,364.512 15.200 C 364.375 15.200,363.979 14.953,363.631 14.650 C 363.284 14.348,361.830 13.510,360.400 12.789 C 358.970 12.068,356.966 11.056,355.946 10.539 C 354.926 10.023,353.816 9.600,353.478 9.600 C 353.141 9.600,352.265 9.300,351.532 8.932 C 350.800 8.565,349.887 8.115,349.505 7.932 C 349.123 7.750,348.189 7.600,347.429 7.600 C 346.669 7.600,345.936 7.420,345.800 7.200 C 345.664 6.980,344.945 6.800,344.202 6.800 C 343.460 6.800,342.345 6.582,341.726 6.315 C 341.107 6.048,338.260 5.675,335.400 5.485 C 327.608 4.968,70.767 4.721,69.900 5.229 M340.898 7.179 C 342.274 7.593,344.390 8.058,345.600 8.210 C 346.810 8.363,348.717 8.918,349.839 9.444 C 350.960 9.970,352.170 10.400,352.528 10.400 C 353.124 10.400,355.854 11.500,357.800 12.525 C 361.338 14.389,365.170 16.661,366.000 17.387 C 366.550 17.869,368.199 19.101,369.665 20.127 C 371.131 21.152,374.258 24.051,376.613 26.568 C 381.128 31.393,381.831 32.313,384.586 37.000 C 385.233 38.100,385.879 39.090,386.022 39.200 C 386.800 39.799,390.789 49.740,391.719 53.400 C 393.918 62.052,393.790 53.561,393.911 198.000 C 393.993 295.093,393.901 331.671,393.568 334.600 C 393.318 336.800,392.983 340.040,392.823 341.800 C 392.664 343.560,392.249 345.658,391.903 346.462 C 391.556 347.266,391.063 348.931,390.808 350.162 C 390.552 351.393,390.205 352.400,390.036 352.400 C 389.866 352.400,389.491 353.165,389.201 354.100 C 388.911 355.035,388.420 356.218,388.109 356.728 C 387.799 357.239,387.291 358.376,386.981 359.255 C 386.670 360.134,386.042 361.336,385.585 361.927 C 385.127 362.517,384.047 364.080,383.184 365.400 C 377.457 374.161,370.835 380.467,363.000 384.619 C 361.460 385.435,360.020 386.305,359.800 386.552 C 359.580 386.799,357.960 387.603,356.200 388.341 C 354.440 389.078,352.010 390.095,350.800 390.602 C 349.590 391.109,347.790 391.647,346.800 391.798 C 345.810 391.948,343.830 392.417,342.400 392.838 C 338.576 393.965,59.788 393.849,56.800 392.719 C 55.810 392.345,54.190 391.916,53.200 391.766 C 52.210 391.615,50.950 391.257,50.400 390.970 C 49.850 390.682,48.369 390.080,47.109 389.632 C 45.849 389.184,44.499 388.657,44.109 388.461 C 43.719 388.264,42.050 387.436,40.400 386.619 C 36.122 384.501,34.992 383.849,34.154 383.011 C 33.747 382.604,32.511 381.680,31.407 380.958 C 25.399 377.028,17.031 366.854,13.184 358.800 C 12.500 357.370,11.775 355.885,11.571 355.500 C 10.622 353.709,10.417 353.262,9.601 351.200 C 9.122 349.990,8.486 347.650,8.187 346.000 C 7.889 344.350,7.362 341.759,7.016 340.242 C 6.037 335.945,6.270 61.720,7.255 58.400 C 7.614 57.190,8.036 55.304,8.192 54.209 C 8.348 53.115,8.804 51.576,9.205 50.791 C 9.605 50.005,10.066 48.656,10.228 47.791 C 10.390 46.927,10.750 45.993,11.027 45.715 C 11.305 45.438,11.841 44.263,12.218 43.105 C 12.596 41.947,13.521 40.131,14.274 39.069 C 15.027 38.007,15.795 36.740,15.979 36.254 C 17.074 33.375,25.239 24.067,29.600 20.726 C 33.607 17.657,35.948 16.000,36.276 16.000 C 36.478 16.000,37.353 15.497,38.221 14.882 C 39.090 14.266,40.790 13.342,42.000 12.828 C 43.210 12.314,44.920 11.571,45.800 11.176 C 46.680 10.781,48.120 10.241,49.000 9.977 C 49.880 9.712,50.794 9.343,51.030 9.157 C 51.510 8.778,60.504 6.918,63.000 6.681 C 70.138 6.002,338.588 6.483,340.898 7.179 M165.118 101.243 C 163.965 101.682,163.874 101.873,162.767 106.198 C 162.372 107.739,161.435 110.800,160.683 113.000 C 159.932 115.200,159.032 118.080,158.684 119.400 C 158.035 121.858,154.715 130.231,153.249 133.104 C 152.799 133.986,152.037 135.853,151.556 137.254 C 150.467 140.420,148.703 143.650,146.779 146.000 C 145.969 146.990,144.959 148.520,144.534 149.400 C 143.861 150.795,142.381 152.868,137.920 158.662 C 137.265 159.512,136.745 160.801,136.600 161.932 C 136.469 162.960,136.187 164.520,135.974 165.400 C 134.950 169.633,134.003 179.749,134.001 186.474 C 134.000 193.477,134.117 194.444,135.852 201.800 C 136.164 203.120,136.679 205.707,136.998 207.549 C 137.804 212.209,138.102 213.035,141.086 218.900 C 141.394 219.506,142.160 221.247,142.788 222.771 C 143.416 224.295,144.711 226.659,145.665 228.025 C 146.619 229.390,148.063 231.513,148.874 232.742 C 151.574 236.838,158.656 244.239,163.610 248.143 C 167.746 251.404,168.501 251.943,170.200 252.857 C 171.528 253.571,173.905 255.204,175.800 256.705 C 178.758 259.047,186.352 262.799,193.400 265.400 C 196.260 266.455,198.771 267.472,198.980 267.659 C 199.189 267.847,199.780 268.000,200.293 268.000 C 203.685 268.000,214.527 272.225,217.452 274.687 C 218.603 275.656,220.358 276.668,221.452 276.993 C 222.761 277.382,223.531 277.872,223.800 278.486 C 224.040 279.035,224.614 279.448,225.237 279.520 C 226.284 279.642,229.236 282.314,233.600 287.090 C 235.708 289.396,239.261 290.872,240.272 289.861 C 240.394 289.739,239.543 289.514,238.381 289.360 C 235.960 289.039,234.171 287.665,231.731 284.253 C 228.758 280.097,226.587 278.368,220.310 275.158 C 218.490 274.227,216.640 273.167,216.200 272.802 C 215.273 272.033,210.226 269.917,207.600 269.196 C 206.610 268.924,204.990 268.469,204.000 268.185 C 203.010 267.901,201.750 267.577,201.200 267.465 C 200.123 267.245,193.861 264.913,190.600 263.518 C 184.474 260.896,179.157 258.040,175.999 255.674 C 174.037 254.203,171.371 252.331,170.075 251.513 C 165.638 248.714,156.400 240.309,156.400 239.072 C 156.400 238.779,155.933 238.103,155.362 237.570 C 153.948 236.249,153.177 234.684,153.601 233.998 C 153.796 233.683,153.783 233.141,153.571 232.746 C 153.337 232.308,153.342 231.959,153.585 231.809 C 154.326 231.351,153.586 225.162,152.523 222.932 C 151.722 221.251,151.622 220.706,151.989 220.020 C 152.519 219.031,152.459 213.368,151.896 211.149 C 151.682 210.307,151.651 209.299,151.826 208.909 C 152.322 207.808,152.401 203.941,151.957 202.529 C 151.663 201.594,151.694 201.039,152.075 200.429 C 152.489 199.766,152.493 199.441,152.096 198.805 C 151.456 197.780,151.458 196.118,152.100 195.886 C 152.497 195.742,152.492 195.523,152.079 194.825 C 151.708 194.197,151.585 192.413,151.649 188.598 C 151.716 184.691,151.600 183.082,151.221 182.625 C 150.800 182.118,150.799 181.884,151.211 181.386 C 151.625 180.888,151.616 180.578,151.164 179.733 C 150.654 178.780,150.682 178.643,151.504 178.098 C 152.439 177.476,152.760 175.470,151.999 174.999 C 151.731 174.834,151.731 174.503,151.999 174.002 C 152.727 172.641,152.237 170.401,151.018 169.526 C 150.781 169.355,150.807 168.903,151.089 168.326 C 152.246 165.957,152.313 165.048,151.443 163.510 C 150.760 162.303,150.689 161.878,151.069 161.265 C 151.445 160.659,151.409 160.381,150.886 159.858 C 150.377 159.348,150.340 159.100,150.717 158.723 C 151.503 157.937,151.271 156.435,150.200 155.364 C 149.650 154.814,149.200 154.006,149.200 153.569 C 149.200 153.132,148.920 152.667,148.577 152.536 C 148.234 152.404,148.044 152.061,148.155 151.773 C 148.284 151.436,147.972 151.205,147.278 151.124 C 145.608 150.932,145.667 149.526,147.457 146.864 C 149.491 143.840,151.310 140.285,152.199 137.600 C 152.599 136.390,153.528 134.200,154.263 132.732 C 154.999 131.265,155.600 129.957,155.600 129.826 C 155.600 129.695,156.341 127.746,157.247 125.494 C 158.152 123.242,159.398 119.510,160.014 117.200 C 160.631 114.890,161.575 111.740,162.113 110.200 C 162.650 108.660,163.328 106.410,163.620 105.200 C 164.482 101.613,164.507 101.600,170.693 101.600 C 177.090 101.600,178.106 102.145,178.589 105.835 C 178.867 107.958,179.337 110.421,180.187 114.200 C 180.484 115.520,181.037 118.040,181.415 119.800 C 181.794 121.560,182.518 124.530,183.024 126.400 C 186.853 140.556,186.805 140.471,188.571 136.100 C 190.570 131.151,192.181 127.859,194.290 124.414 C 195.439 122.536,197.036 119.740,197.839 118.200 C 199.944 114.161,203.653 108.759,204.625 108.316 C 205.763 107.797,213.904 108.932,214.691 109.719 C 215.627 110.656,216.505 115.669,217.592 126.280 C 217.777 128.084,218.057 129.769,218.215 130.025 C 218.546 130.560,219.124 134.732,219.524 139.467 C 219.676 141.263,219.890 142.801,220.000 142.883 C 221.011 143.642,224.002 145.316,226.800 146.691 C 235.501 150.967,242.461 162.672,243.989 175.600 C 244.184 177.250,244.638 180.220,244.998 182.200 C 245.358 184.180,245.815 186.888,246.013 188.217 C 246.211 189.546,246.935 192.156,247.621 194.017 C 248.308 195.878,249.287 198.570,249.797 200.000 C 251.879 205.840,257.135 214.998,257.942 214.192 C 258.036 214.097,257.381 213.071,256.486 211.910 C 254.664 209.548,251.297 203.052,250.002 199.400 C 249.533 198.080,248.607 195.470,247.942 193.600 C 247.278 191.730,246.563 189.030,246.354 187.600 C 246.145 186.170,245.813 184.010,245.617 182.800 C 245.421 181.590,244.987 178.710,244.654 176.400 C 243.637 169.343,243.147 167.056,242.357 165.677 C 241.941 164.950,241.590 164.140,241.577 163.877 C 241.328 158.718,231.020 147.416,224.200 144.824 C 221.194 143.681,220.308 142.415,219.959 138.761 C 219.461 133.543,218.929 129.732,218.632 129.251 C 218.483 129.011,218.195 127.146,217.991 125.107 C 216.349 108.655,216.262 108.459,210.400 107.856 C 209.410 107.754,207.859 107.546,206.953 107.393 C 204.292 106.943,201.998 109.358,197.824 117.000 C 196.983 118.540,195.688 120.731,194.947 121.868 C 194.206 123.005,193.600 124.044,193.600 124.176 C 193.600 124.308,193.181 125.087,192.668 125.908 C 192.155 126.729,190.784 129.515,189.620 132.100 C 188.456 134.685,187.374 136.800,187.216 136.800 C 186.560 136.800,184.306 129.455,182.246 120.600 C 181.887 119.060,181.141 115.866,180.586 113.502 C 180.032 111.138,179.417 107.915,179.219 106.339 C 178.916 103.925,178.665 103.280,177.623 102.237 L 176.387 101.000 171.293 100.916 C 168.492 100.870,165.713 101.017,165.118 101.243 M185.600 165.690 C 176.668 166.802,173.677 168.341,172.283 172.542 C 171.006 176.388,172.499 177.129,181.620 177.176 C 187.177 177.205,187.200 177.221,187.200 181.093 C 187.200 186.027,188.358 187.882,192.695 189.897 C 200.204 193.387,207.776 194.346,213.835 192.576 C 215.106 192.205,215.305 192.083,214.400 192.231 C 205.706 193.654,198.800 192.668,191.982 189.031 C 188.709 187.284,188.028 186.027,187.712 181.152 C 187.399 176.328,187.868 176.635,180.412 176.386 C 172.455 176.120,171.885 175.824,173.088 172.585 C 174.482 168.832,176.795 167.688,185.600 166.395 C 194.178 165.135,197.073 165.484,205.400 168.776 C 207.160 169.472,209.860 170.500,211.400 171.060 C 216.902 173.061,220.398 176.046,222.965 180.933 C 223.754 182.436,224.400 183.444,224.400 183.172 C 224.400 179.657,214.655 170.400,210.955 170.400 C 210.757 170.400,208.616 169.574,206.197 168.565 C 198.383 165.303,193.819 164.666,185.600 165.690 M224.168 185.430 C 223.972 186.474,223.333 187.478,222.105 188.671 C 219.952 190.764,220.164 190.973,222.395 188.957 C 223.851 187.641,225.227 184.693,224.652 184.119 C 224.542 184.008,224.324 184.599,224.168 185.430 M258.024 214.854 C 257.909 216.089,260.792 219.536,262.369 220.051 C 263.379 220.380,265.740 222.474,270.400 227.173 C 274.030 230.833,277.720 234.357,278.600 235.003 C 279.480 235.650,281.820 237.780,283.800 239.736 C 285.780 241.693,288.507 244.271,289.859 245.467 C 292.786 248.053,294.229 250.859,293.814 253.160 C 293.672 253.952,293.430 256.882,293.277 259.672 L 293.000 264.744 289.400 268.326 C 285.328 272.377,283.730 273.442,278.150 275.817 C 277.353 276.157,276.791 276.524,276.901 276.634 C 277.107 276.841,279.291 275.996,281.400 274.895 C 285.452 272.779,286.943 271.772,287.680 270.657 C 288.136 269.965,289.495 268.599,290.699 267.619 C 293.944 264.979,293.987 264.865,294.448 257.831 L 294.858 251.580 293.455 249.090 C 292.677 247.710,291.196 245.887,290.131 245.000 C 289.075 244.120,286.408 241.624,284.205 239.454 C 282.002 237.283,279.570 235.097,278.800 234.597 C 278.030 234.096,275.600 231.840,273.400 229.583 C 266.961 222.977,264.429 220.665,262.469 219.601 C 261.455 219.050,260.260 218.037,259.813 217.348 C 259.366 216.660,258.786 215.760,258.524 215.348 C 258.261 214.937,258.036 214.714,258.024 214.854 M275.325 277.700 C 274.877 278.195,273.602 279.964,272.490 281.630 C 270.346 284.845,267.366 287.193,263.028 289.084 C 261.913 289.570,261.360 289.961,261.800 289.952 C 262.240 289.943,263.626 289.365,264.879 288.668 C 269.451 286.124,270.956 284.825,272.982 281.668 C 274.065 279.980,275.308 278.195,275.745 277.700 C 276.182 277.205,276.449 276.800,276.339 276.800 C 276.229 276.800,275.773 277.205,275.325 277.700 M242.800 290.476 C 245.607 290.829,256.378 290.806,259.000 290.442 C 260.100 290.289,256.410 290.172,250.800 290.182 C 245.090 290.192,241.568 290.322,242.800 290.476 " stroke="none" fill="#482c19" fill-rule="evenodd"></path></g></svg>